<?xml version="1.0" encoding="utf-8"?>
<!-- Generator: Adobe Illustrator 19.1.0, SVG Export Plug-In . SVG Version: 6.00 Build 0)  -->
<svg version="1.1" id="Layer_1" xmlns="http://www.w3.org/2000/svg" xmlns:xlink="http://www.w3.org/1999/xlink" x="0px" y="0px"
	 viewBox="-252 337 94 94" style="enable-background:new -252 337 94 94;" xml:space="preserve">
<style type="text/css">
	.st0{fill:#E2E551;}
</style>
<polygon class="st0" points="-197,392.2 -189,373 -209,373 -202.5,353 -215.1,353 -223.7,379.8 -204.4,379.8 -209,392.2 
	-218.6,392.2 -209.1,415 -186.3,392.2 "/>
<path d="M-175.6,385.2L-175.6,385.2L-175.6,385.2z"/>
<path class="st0" d="M-234,359.4l-5.7-3.9c-1.5,1.8-2.8,3.6-4,5.6l0,0l0,0c-1.2,2-2.2,4.1-3.1,6.2c-2.1,5.2-3.2,10.8-3.2,16.7
	c0,24.8,20.1,45,45,45c11.7,0,22.3-4.5,30.3-11.8l-5.8-4c-6.6,5.6-15.1,8.9-24.5,8.9c-21.1,0-38.1-17.1-38.1-38.1
	c0-4.4,0.8-8.7,2.2-12.6c0.8-2.2,1.8-4.3,2.9-6.4v0l0,0l12.6,8.7l2.2-6.8L-234,359.4z"/>
<polygon points="-191.6,388.8 -191.8,388.6 -191.8,388.8 "/>
<path class="st0" d="M-205,339c-11.5,0-21.9,4.3-29.9,11.4l5.9,4.1c6.5-5.3,14.9-8.6,24-8.6c21,0,38.1,17.1,38.1,38.1
	c0,4.2-0.7,8.3-2,12.1c-0.7,2.2-1.7,4.4-2.8,6.4l-11.8-8.2l-0.3,0.3l-4.6,4.6l12.9,8.9l5.7,3.9c1.4-1.8,2.7-3.7,3.9-5.7
	c1.2-2,2.2-4.1,3-6.3c1.9-5,3-10.4,3-16.1C-160,359.1-180.1,339-205,339z"/>
</svg>
